<?xml version="1.0" encoding="UTF-8"?>
<svg width="240.528942px" height="35.0002137px" viewBox="0 0 240.528942 35.0002137" version="1.1" xmlns="http://www.w3.org/2000/svg" xmlns:xlink="http://www.w3.org/1999/xlink">
    <title>MMEngineering</title>
    <g id="Desktop---LGT-v3" stroke="none" stroke-width="1" fill="none" fill-rule="evenodd">
        <g id="MMEngineering" fill="#e95445" fill-rule="nonzero">
            <polygon id="Path" points="10.7040119 22.4520051 10.5731851 22.4520051 6.5056606 6.25 0 6.25 0 26.875 3.8415509 26.875 3.8415509 10.5322099 3.948591 10.5322099 8.2420892 26.875 12.7496675 26.875 17.0312723 10.4735495 17.399966 10.5322099 17.399966 26.875 21.241517 26.875 21.241517 6.25 14.7001763 6.25"></polygon>
            <polygon id="Path" points="36.3187826 22.4520051 36.1998486 22.4520051 32.1323246 6.25 25.6147704 6.25 25.6147704 26.875 29.4563216 26.875 29.4563216 10.5322099 29.5752546 10.5322099 33.8568596 26.875 38.3644376 26.875 42.6579356 10.4735495 43.0147366 10.5322099 43.0147366 26.875 46.8562876 26.875 46.8562876 6.25 40.3149466 6.25"></polygon>
            <path d="M65.9050426,15.0416323 L54.6721046,15.0416323 L54.6721046,13.480124 C54.6643566,12.6881916 54.8174696,11.903131 55.1218956,11.1738963 C55.3884416,10.5137167 55.7921766,9.91964713 56.3055556,9.43221395 C56.8357896,8.96423666 57.4454146,8.59793754 58.1047196,8.35116973 C58.8112646,8.09649027 59.5565796,7.97043458 60.3063286,7.97881005 C61.0410126,7.97841851 61.7700966,8.10851083 62.4605906,8.36318133 C63.1198946,8.60994915 63.7295206,8.97624826 64.2597536,9.44422556 C64.7769336,9.92832476 65.1812886,10.5233091 65.4434146,11.1859079 C65.7478406,11.9151426 65.9009536,12.7002032 65.8932056,13.4921356 L65.9050426,15.0416323 Z M66.5797286,8.63944819 C65.8734836,7.71984174 64.9763266,6.96935944 63.9520026,6.44132494 C61.6233416,5.35289169 58.9419686,5.35289169 56.6133076,6.44132494 C55.5784176,6.99001982 54.6767826,7.76548369 53.9737446,8.71151781 C53.2310206,9.7505622 52.6925066,10.9250778 52.3876396,12.1708593 C52.0206696,13.6061901 51.8415806,15.0843153 51.8549926,16.5671058 C51.8449686,18.0521962 52.0159236,19.5328471 52.3639666,20.9753639 C52.6504606,22.2153029 53.1731946,23.3864003 53.9027246,24.4226938 C54.5924276,25.378356 55.4974876,26.1526464 56.5422876,26.6808751 C57.7248516,27.24905 59.0219486,27.5287583 60.3300016,27.4976641 C61.3338076,27.503069 62.3322656,27.3490596 63.2891526,27.0412232 C64.1975746,26.7529656 65.0475416,26.3013559 65.7985126,25.7079353 C66.5404016,25.106422 67.1595716,24.363858 67.6213496,23.5218237 C68.1135746,22.6038102 68.4194606,21.5949808 68.5209316,20.5549578 L65.9050426,20.5549578 C65.8326446,21.9384912 65.1664476,23.2203462 64.0822046,24.0623458 C62.3521976,25.2085581 60.1944436,25.4706061 58.2467586,24.7710303 C57.5766546,24.5155244 56.9587136,24.1368353 56.4239216,23.6539513 C55.8927216,23.1638051 55.4622916,22.5718881 55.1574056,21.9122689 C54.8290446,21.1938325 54.6632286,20.4099506 54.6721046,19.6180529 L54.6721046,17.3838948 L68.7221536,17.3838948 L68.7221536,15.6181892 C68.7323296,14.3282639 68.5487266,13.044298 68.1776706,11.8105112 C67.8483696,10.6600764 67.3060496,9.58385999 66.5797286,8.63944819" id="Shape"></path>
            <path d="M86.2899576,7.38546843 C85.7005426,6.79152166 84.9784116,6.34643339 84.1831996,6.08696052 C83.2923756,5.79113308 82.3603706,5.63834445 81.4218006,5.63426968 C78.6297106,5.48543622 76.0554706,7.14071367 75.0301136,9.74422591 L75.0301136,6.17035093 L72.4710576,6.17035093 L72.4710576,26.875 L75.0301136,26.875 L75.0301136,14.9620834 C75.0216406,14.0080177 75.1663136,13.0587814 75.4586066,12.1506351 C75.7080766,11.345394 76.1124116,10.5967261 76.6488646,9.9467455 C77.1703526,9.35220629 77.8006006,8.86293597 78.5056676,8.50528259 C79.2464926,8.1443155 80.0623986,7.96466033 80.8861846,7.98111426 C82.2777126,7.81880333 83.6544986,8.38620708 84.5283746,9.48214175 C85.2566886,10.7027112 85.6047936,12.1129298 85.5281916,13.5325334 L85.5281916,26.875 L88.0872476,26.875 L88.0872476,13.0798426 C88.1127976,11.928922 87.9479026,10.7817013 87.5992416,9.68466133 C87.3405916,8.829697 86.8931206,8.04390737 86.2899576,7.38546843" id="Path"></path>
            <path d="M106.786526,18.7073137 C106.794798,19.6186007 106.650936,20.5249325 106.360805,21.3893514 C106.106769,22.176077 105.696601,22.9040914 105.154593,23.5302762 C104.60361,24.1339335 103.930619,24.6149725 103.179717,24.9418749 C102.351602,25.2822964 101.462182,25.4504362 100.566259,25.4359345 C99.7585426,25.4391725 98.9570216,25.2956585 98.2011376,25.0124549 C97.5072386,24.7451545 96.8725316,24.3455569 96.3326926,23.8361226 C95.8236436,23.3600568 95.4207636,22.7829656 95.1501316,22.1422041 C94.8775696,21.4818718 94.7408526,20.7738865 94.7480616,20.0600959 L94.7480616,13.9314046 C94.7395886,13.2136903 94.8763236,12.5016123 95.1501316,11.8375331 C95.4209616,11.2003029 95.8239276,10.6270965 96.3326926,10.1553779 C96.8729436,9.65221711 97.5025096,9.25333151 98.1893126,8.9790456 C99.8206876,8.38876407 101.613004,8.41387501 103.22702,9.04962554 C103.964563,9.39191555 104.621347,9.88491545 105.154593,10.4965143 C105.696503,11.1234213 106.099453,11.8569358 106.337153,12.6492024 C106.627284,13.5136212 106.771147,14.4199531 106.762875,15.33124 L106.786526,18.7073137 Z M106.786526,10.3200644 C105.601268,7.70934364 102.92085,6.09552931 100.045932,6.26171798 C98.8161386,6.22951064 97.5974186,6.50025818 96.4982506,7.04986062 C95.4870016,7.57638291 94.6125666,8.32942963 93.9439206,9.24960203 C93.2021426,10.2673188 92.6641526,11.417506 92.3592896,12.6374391 C92.0011776,14.0524673 91.8263186,15.5072176 91.8389626,16.9663419 C91.8263656,18.433219 92.0012086,19.8957429 92.3592896,21.3187714 C92.6641526,22.5387045 93.2021426,23.6888917 93.9439206,24.7066085 C94.6190416,25.6267834 95.5021076,26.3762568 96.5219016,26.8945866 C98.9168126,28.0192822 101.708135,27.9362022 104.031161,26.6710834 C105.220975,25.9597017 106.174871,24.916761 106.774701,23.671436 L106.774701,26.6240301 C106.913576,28.3337836 106.285978,30.0172221 105.059988,31.2234894 C103.868752,32.2417599 102.337142,32.7789875 100.767294,32.7291948 C99.3684986,32.8195647 97.9770336,32.4652915 96.7938906,31.717549 C95.8632896,31.0184483 95.2779206,29.9566315 95.1856086,28.8002449 L92.6431036,28.8002449 C92.7277306,29.858162 93.0511016,30.8834766 93.5891526,31.7998923 C94.0445566,32.5669741 94.6718316,33.2191254 95.4221206,33.7055506 C96.1911586,34.1932472 97.0456786,34.5324571 97.9409746,34.705433 C98.9212506,34.9068757 99.9200696,35.005443 100.921027,35 C101.998193,35.0050412 103.068928,34.834149 104.090289,34.4936932 C105.077775,34.1617163 105.987067,33.6334224 106.762875,32.9409346 C107.563748,32.2091282 108.196951,31.3144747 108.619495,30.3177136 C109.116092,29.1420428 109.357865,27.8754141 109.329031,26.6005035 L109.329031,6.80283084 L106.786526,6.80283084 L106.786526,10.3200644 Z" id="Shape"></path>
            <rect id="Rectangle" x="114.329342" y="0" width="2.499002" height="2.5"></rect>
            <rect id="Rectangle" x="114.329342" y="6.25" width="2.499002" height="20.625"></rect>
            <path d="M135.597637,7.38546843 C135.008222,6.79152166 134.286091,6.34643339 133.49088,6.08696052 C132.615229,5.79605252 131.699675,5.64332763 130.77709,5.63426968 C127.985001,5.48543622 125.41076,7.14071367 124.385403,9.74422591 L124.385403,6.17035093 L121.826348,6.17035093 L121.826348,26.875 L124.385403,26.875 L124.385403,14.9620834 C124.37693,14.0080177 124.521603,13.0587814 124.813896,12.1506351 C125.063367,11.345394 125.467701,10.5967261 126.004155,9.9467455 C126.525643,9.35220629 127.15589,8.86293597 127.860958,8.50528259 C128.60223,8.14560415 129.417823,7.9660179 130.241474,7.98111426 C131.633003,7.81880333 133.009788,8.38620708 133.883665,9.48214175 C134.611979,10.7027112 134.960083,12.1129298 134.883482,13.5325334 L134.883482,26.875 L137.442537,26.875 L137.442537,13.0798426 C137.468088,11.928922 137.303192,10.7817013 136.954531,9.68466133 C136.681916,8.8253602 136.21796,8.03920929 135.597637,7.38546843" id="Path"></path>
            <path d="M155.208854,15.0416323 L143.975916,15.0416323 L143.975916,13.480124 C143.968169,12.6881916 144.121282,11.903131 144.425707,11.1738963 C144.692254,10.5137167 145.095988,9.91964713 145.609368,9.43221395 C146.139601,8.96423666 146.749227,8.59793754 147.408532,8.35116973 C148.111337,8.0978821 148.852524,7.97184692 149.598303,7.97881005 C150.332988,7.97842504 151.062072,8.10851083 151.752566,8.36318133 C152.41187,8.60994915 153.021496,8.97624826 153.551729,9.44422556 C154.068909,9.92832476 154.473264,10.5233091 154.73539,11.1859079 C155.039816,11.9151426 155.192928,12.7002032 155.185181,13.4921356 L155.208854,15.0416323 Z M155.930887,8.63944819 C155.224642,7.71984174 154.327485,6.96935944 153.303161,6.44132494 C150.9745,5.35289169 148.293127,5.35289169 145.964466,6.44132494 C144.929576,6.99001982 144.027941,7.76548369 143.324903,8.71151781 C142.577987,9.7496204 142.035427,10.9241942 141.726961,12.1708593 C141.359991,13.6061901 141.180902,15.0843153 141.194314,16.5671058 C141.18429,18.0521962 141.355245,19.5328471 141.703288,20.9753639 C141.989782,22.2153029 142.512516,23.3864003 143.242047,24.4226938 C143.93175,25.378356 144.836809,26.1526464 145.88161,26.6808751 C147.064173,27.24905 148.36127,27.5287583 149.669323,27.4976641 C150.673129,27.503069 151.671587,27.3490596 152.628474,27.0412232 C153.536896,26.7529656 154.386864,26.3013559 155.137834,25.7079353 C155.879724,25.106422 156.498893,24.363858 156.960672,23.5218237 C157.452896,22.6038102 157.758783,21.5949808 157.860254,20.5549578 L155.244364,20.5549578 C155.171966,21.9384912 154.505769,23.2203462 153.421527,24.0623458 C151.691519,25.2085581 149.533766,25.4706061 147.586081,24.7710303 C146.915976,24.5155244 146.298036,24.1368353 145.763244,23.6539513 C145.232043,23.1638051 144.801613,22.5718881 144.496727,21.9122689 C144.168366,21.1938325 144.00255,20.4099506 144.011426,19.6180529 L144.011426,17.3838948 L158.061476,17.3838948 L158.061476,15.6181892 C158.071651,14.3282639 157.888049,13.044298 157.516992,11.8105112 C157.191276,10.660969 156.653003,9.58481234 155.930887,8.63944819" id="Shape"></path>
            <path d="M175.86113,15.0416323 L164.640029,15.0416323 L164.640029,13.480124 C164.628537,12.6890308 164.777615,11.9040028 165.077984,11.1738963 C165.34453,10.5137167 165.748264,9.91964713 166.261644,9.43221395 C166.796942,8.96513994 167.410272,8.59902352 168.072645,8.35116973 C169.464498,7.83912133 170.989315,7.83912133 172.381169,8.35116973 C173.040473,8.59793754 173.650099,8.96423666 174.180333,9.43221395 C174.693149,9.92013958 175.096792,10.5140762 175.363993,11.1738963 C175.664362,11.9040028 175.813439,12.6890308 175.801947,13.480124 L175.86113,15.0416323 Z M176.535817,8.63944819 C175.829572,7.71984174 174.932415,6.96935944 173.908091,6.44132494 C171.579429,5.35289169 168.898057,5.35289169 166.569396,6.44132494 C165.534506,6.99001982 164.632871,7.76548369 163.929833,8.71151781 C163.187109,9.7505622 162.648595,10.9250778 162.343728,12.1708593 C161.976758,13.6061901 161.797669,15.0843153 161.811081,16.5671058 C161.801057,18.0521962 161.972012,19.5328471 162.320055,20.9753639 C162.611651,22.2135359 163.133956,23.3836737 163.858813,24.4226938 C164.548516,25.378356 165.453576,26.1526464 166.498376,26.6808751 C167.680939,27.24905 168.978037,27.5287583 170.28609,27.4976641 C171.289895,27.503069 172.288354,27.3490596 173.245241,27.0412232 C174.153663,26.7529656 175.00363,26.3013559 175.754601,25.7079353 C176.500199,25.110304 177.120046,24.3669273 177.577438,23.5218237 C178.069663,22.6038102 178.375549,21.5949808 178.47702,20.5549578 L175.86113,20.5549578 C175.788733,21.9384912 175.122535,23.2203462 174.038293,24.0623458 C172.944899,24.8172967 171.643355,25.2000725 170.321599,25.1554016 C169.602517,25.153645 168.889344,25.0235387 168.214684,24.7710303 C167.541858,24.5212529 166.922909,24.1419459 166.391847,23.6539513 C165.853515,23.1675867 165.41854,22.5749594 165.113493,21.9122689 C164.788826,21.1930045 164.627044,20.4090753 164.640029,19.6180529 L164.640029,17.3838948 L178.678242,17.3838948 L178.678242,15.6181892 C178.688417,14.3282639 178.504815,13.044298 178.133758,11.8105112 C177.804458,10.6600764 177.262137,9.58385999 176.535817,8.63944819" id="Shape"></path>
            <path d="M183.051897,10.3227547 L183.051897,26.875 L185.701617,26.875 L185.701617,8.54166667 L192.423154,8.54166667 L192.423154,6.25 L187.257416,6.25 C186.152828,6.25 185.093658,6.67946652 184.313738,7.44359945 C183.533817,8.20773237 183.097286,9.24368635 183.100515,10.3227547" id="Path"></path>
            <rect id="Rectangle" x="196.171657" y="6.25" width="2.499002" height="20.625"></rect>
            <rect id="Rectangle" x="196.171657" y="0" width="2.499002" height="2.5"></rect>
            <path d="M216.823645,7.38546843 C216.235394,6.7889618 215.511531,6.34346518 214.713773,6.08696052 C213.837254,5.7943353 212.920073,5.64156499 211.995971,5.63426968 C209.199752,5.48543622 206.621705,7.14071367 205.594832,9.74422591 L205.594832,6.17035093 L203.043913,6.17035093 L203.043913,26.875 L205.594832,26.875 L205.594832,14.9620834 C205.586346,14.0080177 205.731233,13.0587814 206.023959,12.1506351 C206.26941,11.3435569 206.674789,10.5940636 207.215977,9.9467455 C207.730311,9.34877136 208.358329,8.85881041 209.063605,8.50528259 C209.806415,8.14687485 210.622907,7.96735607 211.447642,7.98111426 C212.841228,7.81880333 214.22005,8.38620708 215.095219,9.48214175 C215.824609,10.7027112 216.173229,12.1129298 216.096514,13.5325334 L216.096514,26.875 L218.659354,26.875 L218.659354,13.0798426 C218.688356,11.9296094 218.527257,10.7824754 218.182546,9.68466133 C217.909153,8.82286149 217.439982,8.03594991 216.811725,7.38546843" id="Path"></path>
            <path d="M237.942435,18.3321961 C237.954494,19.2611137 237.814918,20.185631 237.529388,21.0680987 C237.257144,21.8723713 236.832111,22.614405 236.278448,23.252021 C235.721923,23.8654482 235.047002,24.3556328 234.295825,24.6919697 C233.469797,25.0405442 232.581932,25.2121133 231.687733,25.1959518 C230.881675,25.1992548 230.081799,25.0528586 229.327468,24.7639672 C228.638637,24.4910216 228.009151,24.0833394 227.47466,23.5640099 C226.960457,23.0838507 226.557399,22.4936981 226.294527,21.8360714 C226.018482,21.163325 225.878027,20.44109 225.881285,19.7121469 L225.881285,13.4603694 C225.877087,12.7274524 226.017548,12.0011069 226.294527,11.3244454 C226.556115,10.6695743 226.959485,10.083065 227.47466,9.6085065 C228.007506,9.09287199 228.632392,8.68557502 229.315666,8.4085492 C230.069785,8.11887217 230.869804,7.97244963 231.675931,7.97656458 C232.570131,7.96040305 233.457996,8.13197216 234.284024,8.48054664 C235.035161,8.81153455 235.710346,9.2978245 236.266647,9.90849583 C236.827706,10.5452105 237.25356,11.2927617 237.517587,12.1044177 C237.803116,12.9868854 237.942693,13.9114027 237.930633,14.8403203 L237.942435,18.3321961 Z M237.942435,6.1886282 L237.942435,9.7885001 C236.763261,7.12064742 234.087528,5.46914558 231.21568,5.63664785 C229.988412,5.60379367 228.772193,5.8799788 227.675282,6.44061924 C226.666109,6.97771599 225.793469,7.7458866 225.126196,8.68453938 C224.389353,9.7231772 223.856429,10.8965637 223.55662,12.1404164 C223.192714,13.5867096 223.01812,15.0755112 223.037362,16.5682588 C223.019624,18.0609253 223.194194,19.5495275 223.55662,20.9961013 C223.851854,22.2415762 224.385172,23.41583 225.126196,24.4519783 C225.812277,25.4188798 226.719572,26.2013889 227.769693,26.7318971 C230.156422,27.8750977 232.936614,27.79038 235.251733,26.5039053 C236.444077,25.7844188 237.397563,24.7188005 237.98964,23.4440141 L237.98964,26.455907 C238.121581,28.1967764 237.501147,29.9097275 236.290249,31.14774 C235.097839,32.1882718 233.565041,32.7363326 231.994567,32.6836853 C230.598797,32.7742025 229.210689,32.4129445 228.029322,31.6517221 C227.105266,30.9345186 226.522324,29.8536498 226.424342,28.675828 L223.898858,28.675828 C223.979695,29.7540379 224.29835,30.7998853 224.831163,31.7357191 C225.43066,32.5326201 226.1861,33.1945201 227.049812,33.6796499 C227.814075,34.1749964 228.662571,34.5209101 229.551693,34.6996136 C230.534037,34.9044617 231.534652,35.0049976 232.537428,35 C233.605295,35.0009272 234.666014,34.8225225 235.67658,34.4716217 C236.550843,34.1325445 237.33491,33.5900937 237.966037,32.8876781 C238.768976,32.1418746 239.404874,31.2292955 239.830647,30.2117733 C240.31652,29.0098929 240.553544,27.719083 240.526925,26.4199082 L240.526925,6.1886282 L237.942435,6.1886282 Z" id="Shape"></path>
        </g>
    </g>
</svg>